# xmcd
#
# Track frame offsets:
#	150
#	7674
#	23180
#	39254
#	50129
#	65201
#	79050
#	88876
#	102862
#	119876
#	131896
#	144228
#	158693
#	174393
#	188934
#	200230
#	214425
#	228651
#	246801
#	261021
#
# Disc length: 3657 seconds
#
# Revision: 1
# Processed by: cddbd v1.5.2PL0 Copyright (c) Steve Scherf et al.
# Submitted via: audiograbber 1.83.01
#
DISCID=280e4714
DTITLE=Various Artist - Kinderkarneval
DYEAR=2011
DGENRE=Kinderlieder
TTITLE0=Narhalla Marsch
TTITLE1=So a schöner Tag (Fliegerlied)
TTITLE2=Cowbay und Indianer (Kinder Karneval-Mix)
TTITLE3=Denn wenn et Trömmelsche jeit
TTITLE4=Hörst Du die Regenwürmer husten
TTITLE5=Das rote Pferd (Kinder Karneval-Mix)
TTITLE6=Schnappi
TTITLE7=Hab ne Tante aus Marokko
TTITLE8=Mer losse d'r Dom in Kölle (Kids-Mix)
TTITLE9=Der Ententanz
TTITLE10=Heidi (Opossum-Karneval-Mix)
TTITLE11=Meine Oma fährt im Hünerstall Motorrad
TTITLE12=Das singende Känguruh
TTITLE13=Heut fahrn wir übern See
TTITLE14=Der Cowboy Jim aus Texas
TTITLE15=Tanz der Pinguine (Kinder Karneval-Mix)
TTITLE16=Bi-Ba-Butzemann
TTITLE17=Hey Pipi Langstrumpf
TTITLE18=Wer hat die Kokusnuss geklaut
TTITLE19=Das Lied über mich
EXTD=
EXTT0=
EXTT1=
EXTT2=
EXTT3=
EXTT4=
EXTT5=
EXTT6=
EXTT7=
EXTT8=
EXTT9=
EXTT10=
EXTT11=
EXTT12=
EXTT13=
EXTT14=
EXTT15=
EXTT16=
EXTT17=
EXTT18=
EXTT19=
PLAYORDER=
